<svg width="263" height="83" viewBox="0 0 263 83" fill="none" xmlns="http://www.w3.org/2000/svg">
<rect x="0.83252" y="47.3277" width="33.28" height="31.2" fill="#FF66F9"/>
<rect x="52.832" y="47.3277" width="33.28" height="31.2" fill="#FF66F9"/>
<rect x="20.5923" y="30.6877" width="44.72" height="32.24" fill="#FF66F9"/>
<rect x="0.83252" y="30.6877" width="13.52" height="32.24" fill="#FF66F9"/>
<rect x="72.5923" y="30.6877" width="13.52" height="32.24" fill="#FF66F9"/>
<rect x="84.0322" y="0.52771" width="15.6" height="35.36" transform="rotate(90 84.0322 0.52771)" fill="#FF66F9"/>
<rect x="34.1123" y="0.52771" width="18.72" height="30.16" fill="#FF66F9"/>
<path d="M110.229 51.5277V38.9673H115.869C116.552 38.9673 117.138 39.0955 117.626 39.3518C118.115 39.6081 118.493 39.9682 118.761 40.4321C119.03 40.8837 119.164 41.4086 119.164 42.0067C119.164 42.617 119.054 43.1236 118.835 43.5264C118.627 43.9292 118.353 44.2466 118.011 44.4785C117.669 44.6982 117.315 44.8569 116.949 44.9545V45.0644C117.217 45.101 117.498 45.1865 117.791 45.3207C118.084 45.4428 118.353 45.6259 118.597 45.87C118.853 46.1019 119.061 46.4071 119.219 46.7855C119.378 47.1639 119.457 47.6278 119.457 48.177C119.457 48.824 119.311 49.3977 119.018 49.8982C118.725 50.3986 118.316 50.7953 117.791 51.0883C117.266 51.3812 116.662 51.5277 115.978 51.5277H110.229ZM112.664 49.4587H115.264C115.594 49.4587 115.881 49.3855 116.125 49.239C116.369 49.0803 116.552 48.8728 116.674 48.6165C116.808 48.3479 116.876 48.0611 116.876 47.7559C116.876 47.4019 116.802 47.1029 116.656 46.8587C116.522 46.6024 116.332 46.4132 116.088 46.2911C115.844 46.1569 115.57 46.0897 115.264 46.0897H112.664V49.4587ZM112.664 44.1489H115.063C115.368 44.1489 115.637 44.0818 115.869 43.9475C116.113 43.801 116.296 43.5996 116.418 43.3433C116.552 43.087 116.619 42.8001 116.619 42.4827C116.619 41.9579 116.491 41.5612 116.235 41.2926C115.991 41.0241 115.643 40.8898 115.191 40.8898H112.664V44.1489ZM128.367 51.7108C127.378 51.7108 126.585 51.4362 125.987 50.8869C125.401 50.3376 125.108 49.5198 125.108 48.4334V42.1715H127.616V48.0123C127.616 48.6348 127.763 49.0986 128.056 49.4038C128.361 49.709 128.764 49.8615 129.264 49.8615C129.606 49.8615 129.905 49.7822 130.161 49.6235C130.43 49.4648 130.637 49.239 130.784 48.946C130.942 48.6531 131.022 48.3235 131.022 47.9573V42.1715H133.512V49.5136C133.512 49.709 133.555 49.8493 133.64 49.9348C133.726 50.008 133.835 50.0446 133.97 50.0446C134.08 50.0446 134.183 50.0385 134.281 50.0263C134.379 50.0019 134.482 49.9531 134.592 49.8798V51.3629C134.434 51.4728 134.208 51.5582 133.915 51.6193C133.634 51.6803 133.359 51.7108 133.091 51.7108C132.615 51.7108 132.249 51.6498 131.992 51.5277C131.748 51.4179 131.577 51.2653 131.48 51.07C131.382 50.8625 131.315 50.6244 131.278 50.3559C131.107 50.6244 130.894 50.8625 130.637 51.07C130.381 51.2653 130.064 51.4179 129.685 51.5277C129.319 51.6498 128.88 51.7108 128.367 51.7108ZM143.557 51.5277V44.0391H140.371V42.1715H146.065V51.5277H143.557ZM140.371 51.5277V49.6967H149.013V51.5277H140.371ZM143.612 40.3222V38.2715H145.699V40.3222H143.612ZM158.087 51.7108C157.404 51.7108 156.781 51.5521 156.22 51.2348C155.671 50.9052 155.225 50.3986 154.883 49.7151C154.554 49.0193 154.389 48.1282 154.389 47.0418V46.8404C154.389 45.7785 154.56 44.8874 154.902 44.1672C155.243 43.447 155.695 42.9039 156.257 42.5377C156.83 42.1715 157.465 41.9884 158.161 41.9884C158.734 41.9884 159.229 42.0799 159.644 42.263C160.071 42.4461 160.413 42.6902 160.669 42.9954V38.3448H163.159V51.5277H161.127L160.889 50.3559C160.62 50.7831 160.254 51.1188 159.79 51.3629C159.339 51.5948 158.771 51.7108 158.087 51.7108ZM158.783 50.0446C159.32 50.0446 159.766 49.8493 160.12 49.4587C160.474 49.0559 160.651 48.4578 160.651 47.6644V46.0348C160.651 45.2414 160.474 44.6494 160.12 44.2588C159.766 43.856 159.32 43.6546 158.783 43.6546C158.246 43.6546 157.801 43.856 157.447 44.2588C157.093 44.6494 156.916 45.2414 156.916 46.0348V47.6461C156.916 48.4395 157.093 49.0376 157.447 49.4404C157.801 49.8432 158.246 50.0446 158.783 50.0446ZM172.838 51.5277V40.194H169.634V38.3264H175.328V51.5277H172.838ZM169.634 51.5277V49.6967H178.276V51.5277H169.634ZM188.394 51.7108C187.723 51.7108 187.1 51.6071 186.526 51.3995C185.953 51.1798 185.452 50.8503 185.025 50.4108C184.598 49.9714 184.262 49.4099 184.018 48.7263C183.786 48.0428 183.67 47.2249 183.67 46.2728V44.2222C183.67 43.2823 183.786 42.4705 184.018 41.787C184.25 41.0912 184.579 40.5236 185.007 40.0842C185.446 39.6447 185.959 39.3213 186.545 39.1138C187.143 38.894 187.802 38.7842 188.522 38.7842H188.943C189.59 38.7842 190.188 38.8818 190.738 39.0771C191.287 39.2724 191.769 39.5654 192.184 39.956C192.611 40.3344 192.941 40.8166 193.173 41.4025C193.417 41.9762 193.539 42.6414 193.539 43.3982H191.049C191.049 42.8733 190.963 42.4217 190.793 42.0433C190.634 41.6527 190.384 41.3536 190.042 41.1461C189.7 40.9264 189.255 40.8166 188.705 40.8166C188.266 40.8166 187.869 40.9081 187.515 41.0912C187.161 41.2621 186.88 41.555 186.673 41.9701C186.478 42.3851 186.38 42.9649 186.38 43.7095V46.7672C186.38 47.3165 186.441 47.7803 186.563 48.1587C186.685 48.5249 186.85 48.8179 187.057 49.0376C187.265 49.2573 187.509 49.4221 187.79 49.532C188.083 49.6296 188.394 49.6784 188.724 49.6784C189.163 49.6784 189.56 49.6052 189.914 49.4587C190.268 49.3122 190.548 49.0559 190.756 48.6897C190.976 48.3235 191.086 47.8108 191.086 47.1517V46.5658H188.486V44.7531H193.539V49.0742C193.539 49.5991 193.551 50.0507 193.576 50.4291C193.6 50.8075 193.631 51.1737 193.667 51.5277H192.184L191.763 50.0446C191.458 50.5695 191.012 50.9784 190.426 51.2714C189.84 51.5643 189.218 51.7108 188.559 51.7108H188.394ZM202.485 51.7108C201.497 51.7108 200.703 51.4362 200.105 50.8869C199.519 50.3376 199.226 49.5198 199.226 48.4334V42.1715H201.735V48.0123C201.735 48.6348 201.881 49.0986 202.174 49.4038C202.479 49.709 202.882 49.8615 203.382 49.8615C203.724 49.8615 204.023 49.7822 204.28 49.6235C204.548 49.4648 204.756 49.239 204.902 48.946C205.061 48.6531 205.14 48.3235 205.14 47.9573V42.1715H207.63V49.5136C207.63 49.709 207.673 49.8493 207.758 49.9348C207.844 50.008 207.954 50.0446 208.088 50.0446C208.198 50.0446 208.302 50.0385 208.399 50.0263C208.497 50.0019 208.601 49.9531 208.711 49.8798V51.3629C208.552 51.4728 208.326 51.5582 208.033 51.6193C207.752 51.6803 207.478 51.7108 207.209 51.7108C206.733 51.7108 206.367 51.6498 206.111 51.5277C205.866 51.4179 205.696 51.2653 205.598 51.07C205.5 50.8625 205.433 50.6244 205.397 50.3559C205.226 50.6244 205.012 50.8625 204.756 51.07C204.499 51.2653 204.182 51.4179 203.804 51.5277C203.437 51.6498 202.998 51.7108 202.485 51.7108ZM217.675 51.5277V44.0391H214.489V42.1715H220.184V51.5277H217.675ZM214.489 51.5277V49.6967H223.131V51.5277H214.489ZM217.73 40.3222V38.2715H219.817V40.3222H217.73ZM232.206 51.7108C231.522 51.7108 230.9 51.5521 230.338 51.2348C229.789 50.9052 229.343 50.3986 229.002 49.7151C228.672 49.0193 228.507 48.1282 228.507 47.0418V46.8404C228.507 45.7785 228.678 44.8874 229.02 44.1672C229.362 43.447 229.813 42.9039 230.375 42.5377C230.949 42.1715 231.583 41.9884 232.279 41.9884C232.853 41.9884 233.347 42.0799 233.762 42.263C234.189 42.4461 234.531 42.6902 234.788 42.9954V38.3448H237.278V51.5277H235.245L235.007 50.3559C234.739 50.7831 234.373 51.1188 233.909 51.3629C233.457 51.5948 232.889 51.7108 232.206 51.7108ZM232.902 50.0446C233.439 50.0446 233.884 49.8493 234.238 49.4587C234.592 49.0559 234.769 48.4578 234.769 47.6644V46.0348C234.769 45.2414 234.592 44.6494 234.238 44.2588C233.884 43.856 233.439 43.6546 232.902 43.6546C232.365 43.6546 231.919 43.856 231.565 44.2588C231.211 44.6494 231.034 45.2414 231.034 46.0348V47.6461C231.034 48.4395 231.211 49.0376 231.565 49.4404C231.919 49.8432 232.365 50.0446 232.902 50.0446ZM246.956 51.5277V40.194H243.752V38.3264H249.446V51.5277H246.956ZM243.752 51.5277V49.6967H252.394V51.5277H243.752ZM110.229 76.5277V63.9673H115.869C116.552 63.9673 117.138 64.0955 117.626 64.3518C118.115 64.6081 118.493 64.9682 118.761 65.4321C119.03 65.8837 119.164 66.4086 119.164 67.0067C119.164 67.617 119.054 68.1236 118.835 68.5264C118.627 68.9292 118.353 69.2466 118.011 69.4785C117.669 69.6982 117.315 69.8569 116.949 69.9545V70.0644C117.217 70.101 117.498 70.1865 117.791 70.3207C118.084 70.4428 118.353 70.6259 118.597 70.87C118.853 71.1019 119.061 71.4071 119.219 71.7855C119.378 72.1639 119.457 72.6278 119.457 73.177C119.457 73.824 119.311 74.3977 119.018 74.8982C118.725 75.3986 118.316 75.7953 117.791 76.0883C117.266 76.3812 116.662 76.5277 115.978 76.5277H110.229ZM112.664 74.4587H115.264C115.594 74.4587 115.881 74.3855 116.125 74.239C116.369 74.0803 116.552 73.8728 116.674 73.6165C116.808 73.3479 116.876 73.0611 116.876 72.7559C116.876 72.4019 116.802 72.1029 116.656 71.8587C116.522 71.6024 116.332 71.4132 116.088 71.2911C115.844 71.1569 115.57 71.0897 115.264 71.0897H112.664V74.4587ZM112.664 69.1489H115.063C115.368 69.1489 115.637 69.0818 115.869 68.9475C116.113 68.801 116.296 68.5996 116.418 68.3433C116.552 68.087 116.619 67.8001 116.619 67.4827C116.619 66.9579 116.491 66.5612 116.235 66.2926C115.991 66.0241 115.643 65.8898 115.191 65.8898H112.664V69.1489ZM126.884 76.5277V69.0391H124.797V67.1715H128.916L129.044 68.4165C129.24 67.9893 129.557 67.6475 129.996 67.3912C130.436 67.1226 130.967 66.9884 131.589 66.9884C132.468 66.9884 133.146 67.2447 133.622 67.7574C134.098 68.2578 134.336 68.917 134.336 69.7348C134.336 69.9057 134.33 70.0766 134.318 70.2475C134.318 70.4184 134.305 70.5954 134.281 70.7785H132.194V70.3207C132.194 70.0644 132.139 69.8264 132.029 69.6067C131.919 69.3869 131.76 69.2099 131.553 69.0757C131.345 68.9292 131.083 68.856 130.765 68.856C130.46 68.856 130.198 68.9414 129.978 69.1123C129.771 69.2832 129.612 69.5029 129.502 69.7714C129.392 70.04 129.337 70.3268 129.337 70.632V76.5277H126.884ZM124.742 76.5277V74.6967H133.091V76.5277H124.742ZM144.289 76.7108C143.239 76.7108 142.373 76.5216 141.689 76.1432C141.006 75.7648 140.499 75.2277 140.169 74.532C139.852 73.8362 139.693 73.0184 139.693 72.0785V71.6207C139.693 70.6564 139.883 69.8325 140.261 69.1489C140.639 68.4531 141.177 67.9222 141.872 67.556C142.58 67.1776 143.416 66.9884 144.381 66.9884C145.272 66.9884 146.035 67.1593 146.669 67.501C147.316 67.8306 147.817 68.3006 148.171 68.9109C148.525 69.509 148.702 70.2109 148.702 71.0165V72.2982H142.33V72.7376C142.33 73.5066 142.519 74.0864 142.898 74.477C143.288 74.8676 143.776 75.0629 144.362 75.0629C145.022 75.0629 145.516 74.9043 145.845 74.5869C146.187 74.2695 146.358 73.7813 146.358 73.1221H148.702C148.702 73.8667 148.519 74.5075 148.153 75.0446C147.786 75.5817 147.274 75.9967 146.614 76.2897C145.968 76.5704 145.192 76.7108 144.289 76.7108ZM142.348 70.87H146.248V70.6137C146.248 70.2231 146.169 69.8813 146.01 69.5883C145.852 69.2954 145.626 69.0635 145.333 68.8926C145.04 68.7095 144.704 68.6179 144.326 68.6179C143.911 68.6179 143.557 68.7217 143.264 68.9292C142.971 69.1245 142.745 69.3869 142.586 69.7165C142.428 70.0339 142.348 70.3696 142.348 70.7235V70.87ZM157.648 76.7108C156.696 76.7108 155.951 76.485 155.414 76.0333C154.877 75.5817 154.609 74.9043 154.609 74.001C154.609 73.2686 154.804 72.6766 155.195 72.2249C155.597 71.7611 156.226 71.4254 157.08 71.2179C157.947 70.9982 159.076 70.8883 160.468 70.8883V69.9912C160.468 69.5273 160.34 69.1794 160.083 68.9475C159.827 68.7156 159.418 68.5996 158.857 68.5996C158.332 68.5996 157.923 68.7156 157.63 68.9475C157.349 69.1672 157.209 69.4785 157.209 69.8813V70.0278H154.92C154.908 69.9057 154.896 69.8264 154.883 69.7898C154.883 69.7409 154.883 69.7165 154.883 69.7165C154.883 69.7165 154.883 69.7226 154.883 69.7348C154.883 69.7348 154.883 69.7226 154.883 69.6982C154.883 68.8682 155.249 68.209 155.982 67.7208C156.726 67.2325 157.715 66.9884 158.948 66.9884C160.254 66.9884 161.249 67.2386 161.933 67.7391C162.616 68.2273 162.958 68.9719 162.958 69.9729V74.5136C162.958 74.6967 163.001 74.831 163.086 74.9165C163.171 75.0019 163.287 75.0446 163.434 75.0446C163.654 75.0446 163.849 74.9897 164.02 74.8798V76.3629C163.849 76.4728 163.629 76.5582 163.361 76.6193C163.092 76.6803 162.811 76.7108 162.518 76.7108C162.103 76.7108 161.768 76.662 161.511 76.5643C161.255 76.4667 161.066 76.3202 160.944 76.1249C160.822 75.9174 160.742 75.6488 160.706 75.3193C160.498 75.6366 160.242 75.8991 159.937 76.1066C159.644 76.3141 159.302 76.4667 158.911 76.5643C158.533 76.662 158.112 76.7108 157.648 76.7108ZM158.509 75.0629C158.936 75.0629 159.29 74.9714 159.571 74.7883C159.864 74.593 160.083 74.3306 160.23 74.001C160.388 73.6592 160.468 73.2808 160.468 72.8658V72.2066C159.638 72.2066 158.972 72.2616 158.472 72.3714C157.984 72.4813 157.63 72.6522 157.41 72.8841C157.19 73.116 157.08 73.4273 157.08 73.8179C157.08 74.2329 157.196 74.5442 157.428 74.7517C157.66 74.9592 158.02 75.0629 158.509 75.0629ZM172.911 76.7108C172.228 76.7108 171.605 76.5521 171.044 76.2348C170.494 75.9052 170.049 75.3986 169.707 74.7151C169.377 74.0193 169.213 73.1282 169.213 72.0418V71.8404C169.213 70.7785 169.384 69.8874 169.725 69.1672C170.067 68.447 170.519 67.9039 171.08 67.5377C171.654 67.1715 172.289 66.9884 172.984 66.9884C173.558 66.9884 174.052 67.0799 174.467 67.263C174.895 67.4461 175.236 67.6902 175.493 67.9954V63.3448H177.983V76.5277H175.951L175.713 75.3559C175.444 75.7831 175.078 76.1188 174.614 76.3629C174.162 76.5948 173.595 76.7108 172.911 76.7108ZM173.607 75.0446C174.144 75.0446 174.59 74.8493 174.944 74.4587C175.298 74.0559 175.475 73.4578 175.475 72.6644V71.0348C175.475 70.2414 175.298 69.6494 174.944 69.2588C174.59 68.856 174.144 68.6546 173.607 68.6546C173.07 68.6546 172.624 68.856 172.27 69.2588C171.916 69.6494 171.739 70.2414 171.739 71.0348V72.6461C171.739 73.4395 171.916 74.0376 172.27 74.4404C172.624 74.8432 173.07 75.0446 173.607 75.0446Z" fill="black"/>
</svg>
