<svg width="263" height="83" viewBox="0 0 263 83" fill="none" xmlns="http://www.w3.org/2000/svg">
<rect x="0.976562" y="47.4243" width="33.28" height="31.2" fill="#7877FF"/>
<rect x="52.9761" y="47.4243" width="33.28" height="31.2" fill="#7877FF"/>
<rect x="20.7363" y="30.7842" width="44.72" height="32.24" fill="#7877FF"/>
<rect x="0.976562" y="30.7842" width="13.52" height="32.24" fill="#7877FF"/>
<rect x="72.7363" y="30.7842" width="13.52" height="32.24" fill="#7877FF"/>
<rect x="84.1763" y="0.624268" width="15.6" height="35.36" transform="rotate(90 84.1763 0.624268)" fill="#7877FF"/>
<rect x="34.2563" y="0.624268" width="18.72" height="30.16" fill="#7877FF"/>
<path d="M110.373 51.6243V39.0638H116.013C116.696 39.0638 117.282 39.192 117.77 39.4483C118.259 39.7047 118.637 40.0648 118.906 40.5286C119.174 40.9803 119.308 41.5051 119.308 42.1032C119.308 42.7136 119.198 43.2201 118.979 43.6229C118.771 44.0258 118.497 44.3431 118.155 44.575C117.813 44.7948 117.459 44.9534 117.093 45.0511V45.161C117.361 45.1976 117.642 45.283 117.935 45.4173C118.228 45.5394 118.497 45.7225 118.741 45.9666C118.997 46.1985 119.205 46.5037 119.363 46.8821C119.522 47.2605 119.601 47.7243 119.601 48.2736C119.601 48.9205 119.455 49.4942 119.162 49.9947C118.869 50.4952 118.46 50.8919 117.935 51.1848C117.41 51.4778 116.806 51.6243 116.122 51.6243H110.373ZM112.808 49.5553H115.408C115.738 49.5553 116.025 49.482 116.269 49.3356C116.513 49.1769 116.696 48.9694 116.818 48.713C116.953 48.4445 117.02 48.1576 117.02 47.8525C117.02 47.4985 116.946 47.1994 116.8 46.9553C116.666 46.699 116.476 46.5098 116.232 46.3877C115.988 46.2534 115.714 46.1863 115.408 46.1863H112.808V49.5553ZM112.808 44.2455H115.207C115.512 44.2455 115.781 44.1783 116.013 44.0441C116.257 43.8976 116.44 43.6962 116.562 43.4398C116.696 43.1835 116.763 42.8967 116.763 42.5793C116.763 42.0544 116.635 41.6577 116.379 41.3892C116.135 41.1206 115.787 40.9864 115.335 40.9864H112.808V44.2455ZM128.511 51.8074C127.522 51.8074 126.729 51.5327 126.131 50.9834C125.545 50.4341 125.252 49.6163 125.252 48.5299V42.268H127.76V48.1088C127.76 48.7313 127.907 49.1952 128.2 49.5003C128.505 49.8055 128.908 49.9581 129.408 49.9581C129.75 49.9581 130.049 49.8787 130.305 49.7201C130.574 49.5614 130.781 49.3356 130.928 49.0426C131.087 48.7497 131.166 48.4201 131.166 48.0539V42.268H133.656V49.6102C133.656 49.8055 133.699 49.9459 133.784 50.0313C133.87 50.1046 133.979 50.1412 134.114 50.1412C134.224 50.1412 134.327 50.1351 134.425 50.1229C134.523 50.0985 134.626 50.0496 134.736 49.9764V51.4595C134.578 51.5693 134.352 51.6548 134.059 51.7158C133.778 51.7768 133.503 51.8074 133.235 51.8074C132.759 51.8074 132.393 51.7463 132.136 51.6243C131.892 51.5144 131.721 51.3618 131.624 51.1665C131.526 50.959 131.459 50.721 131.422 50.4524C131.251 50.721 131.038 50.959 130.781 51.1665C130.525 51.3618 130.208 51.5144 129.829 51.6243C129.463 51.7463 129.024 51.8074 128.511 51.8074ZM143.701 51.6243V44.1356H140.515V42.268H146.209V51.6243H143.701ZM140.515 51.6243V49.7933H149.157V51.6243H140.515ZM143.756 40.4188V38.3681H145.843V40.4188H143.756ZM158.232 51.8074C157.548 51.8074 156.925 51.6487 156.364 51.3313C155.815 51.0017 155.369 50.4952 155.027 49.8116C154.698 49.1158 154.533 48.2248 154.533 47.1384V46.937C154.533 45.875 154.704 44.984 155.046 44.2638C155.387 43.5436 155.839 43.0004 156.401 42.6342C156.974 42.268 157.609 42.0849 158.305 42.0849C158.878 42.0849 159.373 42.1765 159.788 42.3596C160.215 42.5427 160.557 42.7868 160.813 43.092V38.4413H163.303V51.6243H161.271L161.033 50.4524C160.764 50.8797 160.398 51.2154 159.934 51.4595C159.483 51.6914 158.915 51.8074 158.232 51.8074ZM158.927 50.1412C159.464 50.1412 159.91 49.9459 160.264 49.5553C160.618 49.1525 160.795 48.5543 160.795 47.7609V46.1314C160.795 45.338 160.618 44.7459 160.264 44.3553C159.91 43.9525 159.464 43.7511 158.927 43.7511C158.39 43.7511 157.945 43.9525 157.591 44.3553C157.237 44.7459 157.06 45.338 157.06 46.1314V47.7426C157.06 48.536 157.237 49.1342 157.591 49.537C157.945 49.9398 158.39 50.1412 158.927 50.1412ZM172.982 51.6243V40.2906H169.778V38.423H175.472V51.6243H172.982ZM169.778 51.6243V49.7933H178.42V51.6243H169.778ZM188.538 51.8074C187.867 51.8074 187.244 51.7036 186.67 51.4961C186.097 51.2764 185.596 50.9468 185.169 50.5074C184.742 50.0679 184.406 49.5065 184.162 48.8229C183.93 48.1393 183.814 47.3215 183.814 46.3694V44.3187C183.814 43.3788 183.93 42.5671 184.162 41.8835C184.394 41.1878 184.724 40.6202 185.151 40.1807C185.59 39.7413 186.103 39.4178 186.689 39.2103C187.287 38.9906 187.946 38.8807 188.666 38.8807H189.087C189.734 38.8807 190.332 38.9784 190.882 39.1737C191.431 39.369 191.913 39.662 192.328 40.0526C192.755 40.431 193.085 40.9131 193.317 41.499C193.561 42.0727 193.683 42.738 193.683 43.4948H191.193C191.193 42.9699 191.107 42.5183 190.937 42.1399C190.778 41.7493 190.528 41.4502 190.186 41.2427C189.844 41.023 189.399 40.9131 188.849 40.9131C188.41 40.9131 188.013 41.0047 187.659 41.1878C187.305 41.3587 187.024 41.6516 186.817 42.0666C186.622 42.4816 186.524 43.0614 186.524 43.806V46.8638C186.524 47.413 186.585 47.8769 186.707 48.2553C186.829 48.6215 186.994 48.9144 187.201 49.1342C187.409 49.3539 187.653 49.5187 187.934 49.6285C188.227 49.7262 188.538 49.775 188.868 49.775C189.307 49.775 189.704 49.7018 190.058 49.5553C190.412 49.4088 190.692 49.1525 190.9 48.7863C191.12 48.4201 191.23 47.9074 191.23 47.2483V46.6623H188.63V44.8497H193.683V49.1708C193.683 49.6956 193.695 50.1473 193.72 50.5257C193.744 50.9041 193.775 51.2703 193.811 51.6243H192.328L191.907 50.1412C191.602 50.6661 191.156 51.075 190.57 51.3679C189.984 51.6609 189.362 51.8074 188.703 51.8074H188.538ZM202.629 51.8074C201.641 51.8074 200.847 51.5327 200.249 50.9834C199.663 50.4341 199.37 49.6163 199.37 48.5299V42.268H201.879V48.1088C201.879 48.7313 202.025 49.1952 202.318 49.5003C202.623 49.8055 203.026 49.9581 203.526 49.9581C203.868 49.9581 204.167 49.8787 204.424 49.7201C204.692 49.5614 204.9 49.3356 205.046 49.0426C205.205 48.7497 205.284 48.4201 205.284 48.0539V42.268H207.774V49.6102C207.774 49.8055 207.817 49.9459 207.902 50.0313C207.988 50.1046 208.098 50.1412 208.232 50.1412C208.342 50.1412 208.446 50.1351 208.543 50.1229C208.641 50.0985 208.745 50.0496 208.855 49.9764V51.4595C208.696 51.5693 208.47 51.6548 208.177 51.7158C207.896 51.7768 207.622 51.8074 207.353 51.8074C206.877 51.8074 206.511 51.7463 206.255 51.6243C206.011 51.5144 205.84 51.3618 205.742 51.1665C205.644 50.959 205.577 50.721 205.541 50.4524C205.37 50.721 205.156 50.959 204.9 51.1665C204.643 51.3618 204.326 51.5144 203.948 51.6243C203.581 51.7463 203.142 51.8074 202.629 51.8074ZM217.819 51.6243V44.1356H214.633V42.268H220.328V51.6243H217.819ZM214.633 51.6243V49.7933H223.275V51.6243H214.633ZM217.874 40.4188V38.3681H219.961V40.4188H217.874ZM232.35 51.8074C231.666 51.8074 231.044 51.6487 230.482 51.3313C229.933 51.0017 229.487 50.4952 229.146 49.8116C228.816 49.1158 228.651 48.2248 228.651 47.1384V46.937C228.651 45.875 228.822 44.984 229.164 44.2638C229.506 43.5436 229.957 43.0004 230.519 42.6342C231.093 42.268 231.727 42.0849 232.423 42.0849C232.997 42.0849 233.491 42.1765 233.906 42.3596C234.333 42.5427 234.675 42.7868 234.932 43.092V38.4413H237.422V51.6243H235.389L235.151 50.4524C234.883 50.8797 234.517 51.2154 234.053 51.4595C233.601 51.6914 233.033 51.8074 232.35 51.8074ZM233.046 50.1412C233.583 50.1412 234.028 49.9459 234.382 49.5553C234.736 49.1525 234.913 48.5543 234.913 47.7609V46.1314C234.913 45.338 234.736 44.7459 234.382 44.3553C234.028 43.9525 233.583 43.7511 233.046 43.7511C232.509 43.7511 232.063 43.9525 231.709 44.3553C231.355 44.7459 231.178 45.338 231.178 46.1314V47.7426C231.178 48.536 231.355 49.1342 231.709 49.537C232.063 49.9398 232.509 50.1412 233.046 50.1412ZM247.1 51.6243V40.2906H243.896V38.423H249.59V51.6243H247.1ZM243.896 51.6243V49.7933H252.538V51.6243H243.896ZM110.373 76.6243V64.0638H116.013C116.696 64.0638 117.282 64.192 117.77 64.4483C118.259 64.7047 118.637 65.0648 118.906 65.5286C119.174 65.9803 119.308 66.5051 119.308 67.1032C119.308 67.7136 119.198 68.2201 118.979 68.6229C118.771 69.0258 118.497 69.3431 118.155 69.575C117.813 69.7948 117.459 69.9534 117.093 70.0511V70.161C117.361 70.1976 117.642 70.283 117.935 70.4173C118.228 70.5394 118.497 70.7225 118.741 70.9666C118.997 71.1985 119.205 71.5037 119.363 71.8821C119.522 72.2605 119.601 72.7243 119.601 73.2736C119.601 73.9205 119.455 74.4942 119.162 74.9947C118.869 75.4952 118.46 75.8919 117.935 76.1848C117.41 76.4778 116.806 76.6243 116.122 76.6243H110.373ZM112.808 74.5553H115.408C115.738 74.5553 116.025 74.482 116.269 74.3356C116.513 74.1769 116.696 73.9694 116.818 73.713C116.953 73.4445 117.02 73.1576 117.02 72.8525C117.02 72.4985 116.946 72.1994 116.8 71.9553C116.666 71.699 116.476 71.5098 116.232 71.3877C115.988 71.2534 115.714 71.1863 115.408 71.1863H112.808V74.5553ZM112.808 69.2455H115.207C115.512 69.2455 115.781 69.1783 116.013 69.0441C116.257 68.8976 116.44 68.6962 116.562 68.4398C116.696 68.1835 116.763 67.8967 116.763 67.5793C116.763 67.0544 116.635 66.6577 116.379 66.3892C116.135 66.1206 115.787 65.9864 115.335 65.9864H112.808V69.2455ZM127.028 76.6243V69.1356H124.941V67.268H129.06L129.188 68.5131C129.384 68.0859 129.701 67.7441 130.141 67.4877C130.58 67.2192 131.111 67.0849 131.733 67.0849C132.612 67.0849 133.29 67.3413 133.766 67.8539C134.242 68.3544 134.48 69.0136 134.48 69.8314C134.48 70.0023 134.474 70.1732 134.462 70.3441C134.462 70.5149 134.449 70.6919 134.425 70.875H132.338V70.4173C132.338 70.161 132.283 69.9229 132.173 69.7032C132.063 69.4835 131.904 69.3065 131.697 69.1722C131.489 69.0258 131.227 68.9525 130.91 68.9525C130.604 68.9525 130.342 69.038 130.122 69.2089C129.915 69.3797 129.756 69.5995 129.646 69.868C129.536 70.1365 129.481 70.4234 129.481 70.7286V76.6243H127.028ZM124.886 76.6243V74.7933H133.235V76.6243H124.886ZM144.433 76.8074C143.383 76.8074 142.517 76.6182 141.833 76.2398C141.15 75.8614 140.643 75.3243 140.314 74.6285C139.996 73.9327 139.837 73.1149 139.837 72.175V71.7173C139.837 70.753 140.027 69.929 140.405 69.2455C140.783 68.5497 141.321 68.0187 142.016 67.6525C142.724 67.2741 143.56 67.0849 144.525 67.0849C145.416 67.0849 146.179 67.2558 146.813 67.5976C147.46 67.9272 147.961 68.3971 148.315 69.0074C148.669 69.6056 148.846 70.3074 148.846 71.1131V72.3947H142.474V72.8342C142.474 73.6032 142.663 74.183 143.042 74.5736C143.432 74.9642 143.921 75.1595 144.506 75.1595C145.166 75.1595 145.66 75.0008 145.99 74.6834C146.331 74.3661 146.502 73.8778 146.502 73.2187H148.846C148.846 73.9633 148.663 74.6041 148.297 75.1412C147.93 75.6783 147.418 76.0933 146.759 76.3862C146.112 76.667 145.336 76.8074 144.433 76.8074ZM142.492 70.9666H146.392V70.7102C146.392 70.3196 146.313 69.9779 146.154 69.6849C145.996 69.392 145.77 69.16 145.477 68.9891C145.184 68.806 144.848 68.7145 144.47 68.7145C144.055 68.7145 143.701 68.8182 143.408 69.0258C143.115 69.2211 142.889 69.4835 142.73 69.8131C142.572 70.1304 142.492 70.4661 142.492 70.8201V70.9666ZM157.792 76.8074C156.84 76.8074 156.095 76.5815 155.558 76.1299C155.021 75.6783 154.753 75.0008 154.753 74.0975C154.753 73.3651 154.948 72.7731 155.339 72.3215C155.741 71.8577 156.37 71.522 157.225 71.3145C158.091 71.0947 159.22 70.9849 160.612 70.9849V70.0877C160.612 69.6239 160.484 69.276 160.227 69.0441C159.971 68.8121 159.562 68.6962 159.001 68.6962C158.476 68.6962 158.067 68.8121 157.774 69.0441C157.493 69.2638 157.353 69.575 157.353 69.9779V70.1243H155.064C155.052 70.0023 155.04 69.9229 155.027 69.8863C155.027 69.8375 155.027 69.8131 155.027 69.8131C155.027 69.8131 155.027 69.8192 155.027 69.8314C155.027 69.8314 155.027 69.8192 155.027 69.7948C155.027 68.9647 155.394 68.3056 156.126 67.8173C156.871 67.3291 157.859 67.0849 159.092 67.0849C160.398 67.0849 161.393 67.3352 162.077 67.8356C162.76 68.3239 163.102 69.0685 163.102 70.0694V74.6102C163.102 74.7933 163.145 74.9276 163.23 75.013C163.316 75.0985 163.431 75.1412 163.578 75.1412C163.798 75.1412 163.993 75.0863 164.164 74.9764V76.4595C163.993 76.5693 163.773 76.6548 163.505 76.7158C163.236 76.7768 162.955 76.8074 162.662 76.8074C162.247 76.8074 161.912 76.7585 161.655 76.6609C161.399 76.5632 161.21 76.4168 161.088 76.2215C160.966 76.0139 160.886 75.7454 160.85 75.4158C160.642 75.7332 160.386 75.9956 160.081 76.2031C159.788 76.4107 159.446 76.5632 159.055 76.6609C158.677 76.7585 158.256 76.8074 157.792 76.8074ZM158.653 75.1595C159.08 75.1595 159.434 75.0679 159.715 74.8848C160.008 74.6895 160.227 74.4271 160.374 74.0975C160.532 73.7558 160.612 73.3774 160.612 72.9623V72.3032C159.782 72.3032 159.117 72.3581 158.616 72.468C158.128 72.5778 157.774 72.7487 157.554 72.9806C157.334 73.2126 157.225 73.5238 157.225 73.9144C157.225 74.3295 157.34 74.6407 157.572 74.8482C157.804 75.0557 158.164 75.1595 158.653 75.1595ZM173.055 76.8074C172.372 76.8074 171.749 76.6487 171.188 76.3313C170.638 76.0017 170.193 75.4952 169.851 74.8116C169.521 74.1158 169.357 73.2248 169.357 72.1384V71.937C169.357 70.875 169.528 69.984 169.869 69.2638C170.211 68.5436 170.663 68.0004 171.224 67.6342C171.798 67.268 172.433 67.0849 173.128 67.0849C173.702 67.0849 174.197 67.1765 174.612 67.3596C175.039 67.5427 175.381 67.7868 175.637 68.092V63.4413H178.127V76.6243H176.095L175.857 75.4524C175.588 75.8797 175.222 76.2154 174.758 76.4595C174.306 76.6914 173.739 76.8074 173.055 76.8074ZM173.751 75.1412C174.288 75.1412 174.734 74.9459 175.088 74.5553C175.442 74.1525 175.619 73.5543 175.619 72.7609V71.1314C175.619 70.338 175.442 69.7459 175.088 69.3553C174.734 68.9525 174.288 68.7511 173.751 68.7511C173.214 68.7511 172.768 68.9525 172.414 69.3553C172.06 69.7459 171.883 70.338 171.883 71.1314V72.7426C171.883 73.536 172.06 74.1342 172.414 74.537C172.768 74.9398 173.214 75.1412 173.751 75.1412Z" fill="black"/>
</svg>
